<?xml version="1.0" encoding="utf-8"?>
<!-- Generator: Adobe Illustrator 28.2.0, SVG Export Plug-In . SVG Version: 6.00 Build 0)  -->
<svg version="1.1" id="Ebene_1" xmlns="http://www.w3.org/2000/svg" xmlns:xlink="http://www.w3.org/1999/xlink" x="0px" y="0px"
	 viewBox="0 0 24 24" style="enable-background:new 0 0 24 24;" xml:space="preserve">
<style type="text/css">
	.st0{display:none;}
	.st1{display:inline;fill:#F9FAFA;}
	.st2{display:inline;fill:#AED7E0;}
	.st3{display:inline;fill:#DEEEF1;}
	.st4{fill:#F9FAFA;}
	.st5{fill:#AED7E0;}
	.st6{fill:#FFFFFF;fill-opacity:0.2;}
</style>
<g>
	<g id="Background_00000045596617455707412820000015462892137030851774_" class="st0">
		<path class="st1" d="M24,0c0,12,0,12,0,24c-12,0-12,0-24,0C0,12,0,12,0,0C12,0,12,0,24,0z"/>
		<path class="st2" d="M21.9,17.1c-0.2,0.2-0.3,0.4-0.5,0.6c2.8,0.7,1.3,1.3-0.5,1.7c-4.1,0.9-12.3,0.9-16.5,0.3
			c-2.1-0.3-5.6-1.2-1-2c0.7,0.9,1.8,1.8,3,1.6c0.1,0,0.2,0.1,0.3,0.1c0.2,0,0.4,0,0.5,0c0.3,0,0.6,0,0.9,0c0.1,0,0.3,0.1,0.4,0
			c0.3,0.1,0.8,0,1.1,0c0.2,0.1,0.6,0.1,0.5,0c0.4,0.1,0.8,0.1,1.2,0c0,0,0.1,0,0.1,0c0.2,0,1.2,0,1.5,0c0.3,0,0.7,0,1,0
			c-0.4-0.2,0.4,0,0.5,0c1,0,2.8-0.1,3.8-0.3c0.9-0.2,1.6-0.4,2.4-0.9c0.3-0.2,0.9-0.6,0.4-0.5c0,0,0,0,0,0c0.2-0.2,0.4-0.3,0.5-0.4
			C21.9,17.1,21.9,17.1,21.9,17.1z"/>
		<path class="st3" d="M19.7,9.1c0.1,0,0.4,0.1,0.3,0.2C20,9.4,19.4,9.2,19.7,9.1z"/>
	</g>
	<g>
		<path class="st4" d="M12.6,11.4c0.1,0,0.4,0.1,0.3,0.2C12.8,11.7,12.3,11.5,12.6,11.4z"/>
		<g>
			<path class="st4" d="M9.6,4c0.4,0,0.9,0,1.3,0c-0.6,0.1,0.4,0.2,0.9,0.3c0.7,0.2,2.1,0.9,2.6,1.3c0.6,0.5,1.5,1.6,1.8,2.4
				c0.2,0.6,0,0.7-0.1,0.6c-0.1-0.1-0.2-1-1-1.9c-0.6-0.6-1.5-1.3-2.3-1.6c-2.2-1-4.4-0.8-6.5,0.3C6,5.5,6,5.5,5.9,5.6
				C5.4,5.9,4,7,3.7,7.4c0,0-0.2,0.3-0.1,0.3c0.1,0,0.6-0.8,1.4-1.3C5.2,6.3,5.8,5.9,5.9,6c-0.4,0.3-1,0.6-1.3,1
				C3.7,7.7,3.2,8.9,2.8,8.6c-0.4,0.7-0.9,2-1,2.8c-0.2,1-0.1,2-0.1,3c-0.4-0.5-0.4-1.4-0.3-2.1c0-0.7,0.3-1.8,0.6-2.4
				c0.5-1.3,1.6-2.6,2.6-3.6C4.7,6.1,5.2,5.7,5,5.8C4.9,5.8,4,6.4,3.9,6.5C3.8,6.6,3.4,7.1,3.4,7c0,0,0.4-0.4,0.5-0.5
				c1.4-1.4,3.4-2.1,5.3-2.4C9.2,4.1,8.9,4,9.6,4z"/>
			<path class="st4" d="M12.1,4.1c2.3,0.4,4,2.1,4.8,4.2c0,0.6-0.5-0.7-0.8-1.2c-0.7-1.1-2-2.2-3.2-2.7C12.6,4.3,12.2,4.3,12.1,4.1z
				"/>
			<path class="st4" d="M12.8,5.5c1,0.2,2.3,1.7,2.7,2.7c0.2,0.6,0.1,0.9-0.1,0.7c-0.2-0.2-0.4-1.5-1.6-2.6
				C13.5,5.9,13.1,5.7,12.8,5.5z"/>
			<path class="st4" d="M9.3,4.9c1.1-0.1,2.3,0.1,3.3,0.7c0,0.1-0.4-0.1-0.5-0.2c-1.4-0.5-3.2-0.6-4.6,0C7.2,5.4,7.9,5.1,8,5.1
				C8.3,5,8.9,4.9,9.3,4.9z"/>
			<path class="st5" d="M21.9,17.1c0,0,0-0.1,0.1-0.1C22,17,22,17.1,21.9,17.1z"/>
			<g>
				<path d="M12.8,9.1c0,0-0.1,0.2-0.1,0.2c-0.3-0.5-1.3-1-1.9-1.1c-2-0.2-3.3,1.7-3.5,3.5c-0.5-0.4-0.5,0-1.1,0.4
					c-1,0.6-2,0.3-2.4-0.9c-0.1-0.5-0.1-1.1-0.2-0.4c-0.4,0.1-0.3-0.1-0.1-0.7c0.1,0,0.2,0.1,0.2,0.2c0-0.2,0.1-1,0.4-1
					c0.3-0.1,0,0.7,0,1c-0.1,1.5,1,1.9,2,0.8c0.6-0.7,1.5-2.2,2.7-3C10.2,7.2,11.8,7.8,12.8,9.1z"/>
				<path d="M5.2,6.8c0.6,0,0.2,0.1,0.2,0.2c0,0,0,0,0,0.1c-0.3,0.4-0.7,0.7-1,1c-0.4,0.6-0.8,1.3-1,1.9c-0.1,0.5-0.2,0.7,0.1,0.7
					c0,0.1,0,0.3,0,0.4c-0.3,0-0.3,0.2-0.4,0.4c0-0.3,0.1-0.5-0.1-0.5c-0.2,0.1-0.1,1.5-1,1.3C2.3,10.1,3.4,8.2,5.2,6.8z"/>
				<path d="M13.2,17.4c1.8,1.3,4.9,1.6,6.9,0.8c0.4-0.1,0.7-0.4,1.1-0.5c0,0,0,0,0,0c-0.1,0-0.2,0.1-0.2,0.2
					c-1.1,0.6-1.5,0.9-2.8,1.1C17.3,19.1,16.9,19,16,19c-0.3-0.1-0.5-0.1-0.8-0.1c0,0,0,0,0,0c0,0-0.4-0.1-0.7-0.2
					c-0.5-0.2-1.4-0.6-1.8-0.9c-0.2-0.1-0.4-0.4-0.7-0.4c0,0,0,0,0,0c0.1-0.2,0.1-0.6,0.3-0.7C12.6,16.8,12.9,17.2,13.2,17.4z"/>
				<path d="M3.2,11.6c0,0.4,0.2,1.8,0.6,2c0.5,0.3,0.1-0.5,0.2-0.7c0,0,0.2,0.2,0.2,0.3c0,0-0.1,0.1,0,0.1c0.1,0.6,1.2,0.6-0.5,0.6
					c0.1,0.2,0.1,0.5,0.2,0.7c0,0,0,0,0,0c-0.1-0.2-0.2-0.5-0.2-0.8c-0.1,0.1-0.3,0.1-0.5,0.1c-0.1,0-0.2,0-0.3,0
					c-0.2,0-0.4,0-0.6,0c-0.1-0.5,0-1.1,0-1.6c0.9,0.3,0.8-1.2,1-1.3C3.3,11,3.2,11.3,3.2,11.6z"/>
				<path d="M18.2,16.3c0.1,0,0.1,0,0.2,0c0,0.2,0.1,0.3,0.1,0.3c0.2,0.3,0.6,0.4,0.9,0.5c-0.5,0.3-1.9-0.2-2.4-0.6
					c-0.1,0-0.7-0.6-0.3-0.2c0.4,0.5,1.4,0.9,2,0.9c-1.1,0.3-2.3-0.2-3-1.1c0,0,0,0,0-0.1c0.1-0.1,0.5-0.4,0.6-0.4c0,0,0,0,0.1,0
					C16.9,16.2,17.6,16.4,18.2,16.3z"/>
				<path d="M21.7,17.2c-0.2,0.1-0.4,0.3-0.5,0.4c-0.4,0.1-0.7,0.4-1.1,0.5c-2,0.8-5.1,0.5-6.9-0.8c0,0,0.1,0,0.1,0c0,0,0,0.1,0,0.1
					c0,0,0,0,0.1,0c0.2,0.1,0.6,0.3,0.8,0.4c1.5,0.6,3.7,0.7,5.3,0.2c0.4-0.1,0.9-0.4,1-0.4c0.2,0,0.4,0.1,0.4,0
					C21.1,17.4,21.4,17.3,21.7,17.2z"/>
				<path d="M12,17.2C12,17.2,12,17.2,12,17.2c0.1,0.2,0.5,0.5,0.7,0.6c0.7,0.5,1.7,0.8,2.5,1c0.3,0.1,0.5,0.1,0.8,0.1
					c-0.1,0-0.1,0.1-0.2,0.1C15,19,13.2,18.4,12.4,18c-0.6-0.3-1.9-1.2-2.2-1.7c-0.2-0.3-0.4-1-0.1-1.4c0,0,0.1,0.1,0.1,0.1
					c0,0.1-0.1,0.8,0.6,1.7C11.1,17.1,11.7,17.6,12,17.2z"/>
				<path d="M18.9,16.1C18.9,16.2,18.9,16.2,18.9,16.1c0.1,0.3,0.7,0.8,0.9,0.8c0.2,0-0.2-0.1-0.3-0.2c-0.1-0.1-0.2-0.1-0.2-0.2
					c0.2-0.1,0-0.1,0.1-0.2c0.4,0,0.1-0.1,0.2-0.1c0.2,0.2,1,0.6,1.3,0.6c-0.4,0.1-0.8,0.2-1.2,0.3c-0.3,0-1-0.3-1.2-0.5
					c-0.1-0.1-0.1-0.1-0.1-0.3C18.5,16.3,18.8,16.2,18.9,16.1z"/>
				<path d="M3.6,11.2c0,0.6,0.1,1.2,0.4,1.7c-0.1,0.2,0.3,1-0.2,0.7c-0.4-0.2-0.5-1.6-0.6-2C3.3,11.4,3.3,11.2,3.6,11.2z"/>
				<g>
					<path d="M21.8,16.6c-0.9,0.1-1.8-0.2-2.2-1c-0.1,0-0.1,0.1-0.2,0.1c-0.4,0.1-0.8,0.4-1.2,0.5c-0.2,0-0.5,0.1-0.5,0.1
						c-0.2,0.1,0.5,0.1,0.5,0.2c-0.7,0.1-1.3-0.1-1.7-0.7c0,0,0,0-0.1,0c-0.1-0.1-0.3,0.1-0.4,0.1c-1,0.4-2.5,0.7-3.5,0.1
						c-0.1-0.1-0.2-0.1-0.1-0.2c1.3,0.6,2.9,0.2,4.1-0.5c0.1,0,0.2,1.1,1.8,0.7c0.3-0.1,1.1-0.4,1.3-0.6c0.1,0,0.2,0.9,1.8,1.1
						c0.6,0.1,1.1-0.1,0.9,0C22.2,16.5,21.9,16.6,21.8,16.6z"/>
					<path d="M16.5,15.7c-0.1,0-0.4,0.3-0.6,0.4c-0.1,0-0.2,0.1-0.3,0.1c-0.7,0.3-1.6,0.3-2.4,0.3c-0.3-0.2-0.5-0.3-0.7-0.5
						c1,0.5,2.5,0.3,3.5-0.1C16.2,15.8,16.3,15.5,16.5,15.7z"/>
				</g>
				<path d="M13.6,6.7c0.5,0.5,0.9,1.2,1,2c-0.1,0,0,0.4-0.2,0.4c-0.1,0-0.1-0.3-0.1-0.4c-0.3-1-0.9-1.7-1-1.8c0,0,0.1,0,0-0.1
					C13.4,6.6,13.5,6.8,13.6,6.7z"/>
				<path d="M21.8,16.6c-0.3,0.1-0.5,0.2-0.8,0.2c-0.4,0-1.1-0.3-1.3-0.6c-0.1-0.1-0.2-0.3-0.3-0.4c0,0,0.1-0.1,0.1-0.2
					c0,0,0.1-0.1,0.2-0.1C20,16.4,20.9,16.7,21.8,16.6z"/>
				<path d="M16,16.4c0,0,0.1,0.2,0.1,0.2c-0.2,0.1-0.2,0.1-0.3,0.1c-0.1-0.1-0.3-0.3-0.2-0.4C15.7,16.4,15.9,16.4,16,16.4z"/>
				<path d="M15.9,16.1C15.9,16.1,15.9,16.1,15.9,16.1c0,0.1,0.1,0.3,0.1,0.3c-0.2,0-0.3,0-0.4-0.1c0,0,0,0,0-0.1
					C15.7,16.2,15.8,16.1,15.9,16.1z"/>
				<path d="M9.1,14.9c0.1,0,0.1,0.1,0.1,0.2c0,0-0.2,0.1-0.2,0.1C8.9,15.1,9,14.9,9.1,14.9z"/>
				<path d="M5.9,13.4c0.1,0.2-0.1,0.3-0.3,0.3c0-0.1,0.1,0,0.2-0.2C5.9,13.5,5.9,13.4,5.9,13.4z"/>
				<path d="M6.3,12.7C6.3,12.7,6.3,12.7,6.3,12.7C6,13.1,6.2,12.7,6.3,12.7z"/>
				<path d="M6.8,13c0.1,0-0.1,0.2-0.3,0.1C6.6,13.2,6.8,13,6.8,13z"/>
				<g>
					<path d="M9.3,6.1c0,0,0.2,0.2,0.3,0.2c0.2,0,0.5-0.2,0.5-0.2c0.1,0-0.2,0.1,0.1,0.2C10,6.5,10,6.3,9.9,6.3c0,0-0.3,0.3-0.6,0
						C9.3,6.2,9.2,6.2,9.3,6.1z"/>
					<path d="M7.7,6.8c0.2,0,0.2,0.1,0.1,0.1c0,0-0.2,0-0.3,0c-0.1,0-0.2,0.3-0.1,0C7.5,6.9,7.7,6.8,7.7,6.8z"/>
					<path d="M11.7,6.8c0.2-0.1,0.4,0.1,0.4,0.3C11.9,6.9,11.6,6.8,11.7,6.8z"/>
					<path d="M10.6,6.3c0,0,0.2,0.2,0.2,0.2c0,0,0.3,0.1,0,0.1C10.8,6.5,10.6,6.4,10.6,6.3C10.3,6.3,10.6,6.3,10.6,6.3z"/>
					<path d="M7.4,7.2c0.1,0.1-0.1,0-0.2,0.1C7.1,7.4,7,7.8,7.2,7.3C7.3,7.2,7.3,7.2,7.4,7.2z"/>
					<path d="M9,6.4c0.2,0-0.1,0.2-0.2,0.1C8.8,6.3,8.9,6.4,9,6.4C8.9,6.4,9,6.4,9,6.4z"/>
					<path d="M8.4,6.3c0,0,0.2,0,0.2,0c-0.2,0-0.2,0-0.3,0.2C8.3,6.4,8.4,6.3,8.4,6.3z"/>
				</g>
				<path d="M5.7,16.5c0.5,0.8,1.4,1.6,2.2,2.1c-0.2,0.1,0,0.4-0.1,0.5c-0.3-0.1-0.6-0.3-0.8-0.4c-1.1-0.7-2-1.6-2.6-2.8
					c0.2,0,0.1-0.1,0.2-0.2c0,0,0.2,0.1,0.2,0.1c0,0,0,0.1,0,0.1c0.4,0.4,0.7,1.1,1,1C5.8,16.7,5.7,16.5,5.7,16.5z"/>
				<path d="M11.4,19.4c-0.4,0-0.8,0-1.2,0c-1-0.2-2.3-0.9-3.1-1.5c-0.2-0.3,0.3,0,0.4,0c0,0,0.4-0.2,0.3-0.3
					C8.7,18.3,10.3,19.2,11.4,19.4z"/>
				<path d="M7.2,17.8c0.8,0.6,2.1,1.4,3.1,1.5c0.1,0.1-0.3,0.1-0.5,0c-0.5-0.1-1.4-0.6-1.9-0.8c-0.8-0.5-1.7-1.3-2.2-2.1
					c-0.4-0.6-0.8-1.4-1-2C5.3,15.8,6.1,16.9,7.2,17.8z"/>
				<path d="M18.4,19.1c-0.1-0.1-0.1-0.1-0.2-0.2c1.3-0.2,1.7-0.5,2.8-1.1c0,0,0.1-0.1,0.2-0.2c0.4-0.1-0.1,0.3-0.4,0.5
					C20,18.7,19.2,18.9,18.4,19.1z"/>
				<path d="M4.3,15.8C5,16.9,5.8,17.9,7,18.6c-0.1,0-0.1,0-0.1,0.1C5.9,18,5,17.2,4.5,16.2c-0.3-0.5-0.5-1.1-0.7-1.6c0,0,0,0,0,0
					C3.9,15,4.1,15.4,4.3,15.8z"/>
				<g>
					<path d="M7.7,13.3c0,0-0.1,0.3-0.1,0.4c0,0.6,0.1,1.1,0.4,1.6c0.1,0.1,0.9,1.3,1,1.4c0.2,0.2-0.2-0.3-0.3-0.4
						c-0.2-0.3-0.5-0.8-0.5-1.1c0.2,0.2,0.6,0.6,0.9,0.5c0.2,0,0.5-1,1.1-0.7c-0.2,0.3-0.1,1,0.1,1.4c0.3,0.5,1.6,1.4,2.2,1.7
						c0.8,0.4,2.6,1,3.4,1.1c0,0,0.1-0.1,0.2-0.1c0.9,0,1.3,0.1,2.2-0.1c0.1,0.1,0.1,0.1,0.2,0.2c-1,0.2-2.8,0.4-3.8,0.3
						c-0.2,0-0.9-0.2-0.5,0c-0.3,0-0.7,0-1,0c-0.7,0-1,0-1.7-0.2c-1.7-0.5-3.5-1.6-4.4-3.2c-0.5-1.1-0.6-0.9,0,0
						c0.2,0.4,0.7,1.1,1.1,1.5c0.1,0.1-0.3,0.3-0.3,0.3c-0.1,0-0.6-0.3-0.4,0c-1.1-0.9-1.9-2.1-2.4-3.4c0.2,0.7,0.6,1.5,1,2
						c0,0.1,0.1,0.3,0,0.3c-0.2,0.1-0.5-0.7-1-1c0,0,0,0,0-0.1c0,0-0.2-0.1-0.2-0.1c0,0,0,0.1-0.2,0.2c-0.2-0.4-0.4-0.8-0.5-1.2
						c-0.1-0.2-0.1-0.5-0.2-0.7c1.7,0,0.6-0.1,0.5-0.6c0,0,0,0,0-0.1c0.1,0.2,0.6,0.6,0.8,0.7c1.3,0.7,1.9-0.6,2.3-0.7
						C7.4,13.1,7.7,13.1,7.7,13.3z"/>
					<g>
						<path d="M7.7,13.3c0,0.1-0.1,1,0.5,1.8c0,0.3,0.3,0.8,0.5,1.1c0.1,0.1,0.5,0.6,0.3,0.4c-0.1-0.1-0.9-1.3-1-1.4
							c-0.3-0.5-0.4-1-0.4-1.6C7.6,13.6,7.7,13.3,7.7,13.3z"/>
						<path d="M13,19.4c-0.2,0.1-1.2,0-1.5,0c0,0-0.1,0-0.1,0c-1.1-0.2-2.7-1.1-3.5-1.9c-0.4-0.4-0.9-1-1.1-1.5
							c-0.5-0.9-0.5-1.1,0,0c0.9,1.6,2.6,2.7,4.4,3.2C12,19.5,12.3,19.4,13,19.4z"/>
						<path d="M12.6,19.1c0.7,0.2,0.7,0.2,1.3,0.3C13.4,19.3,13,19.2,12.6,19.1z"/>
						<path d="M9.6,17.4c0.1,0.1,0.1,0.1,0.2,0.2C9.8,17.6,9.6,17.4,9.6,17.4z"/>
						<path d="M9.4,17.2C9.6,17.3,9.6,17.4,9.4,17.2C9.4,17.2,9.4,17.2,9.4,17.2z"/>
						<path d="M9.2,17C9.4,17.1,9.3,17.2,9.2,17C9.2,17,9.2,17,9.2,17z"/>
						<path d="M10.3,17.9c0,0,0.1,0,0.1,0.1C10.4,18,10.2,17.9,10.3,17.9z"/>
						<path d="M10.6,18.1c0,0,0.1,0,0.1,0.1C10.7,18.2,10.5,18.1,10.6,18.1z"/>
						<path d="M4.7,14.2c0,0,0.1,0.1,0,0.1C4.7,14.3,4.7,14.2,4.7,14.2z"/>
						<path d="M6.3,14.8c0,0,0.1,0.1,0,0.1C6.3,14.9,6.2,14.8,6.3,14.8z"/>
						<path d="M11.1,18.4C11.1,18.4,11.2,18.4,11.1,18.4C11.2,18.5,11.1,18.4,11.1,18.4z"/>
						<path d="M11.3,18.4C11.3,18.4,11.3,18.5,11.3,18.4C11.3,18.5,11.2,18.5,11.3,18.4z"/>
					</g>
				</g>
				<g>
					<path d="M13.6,6.7c-0.1,0.1-0.2-0.1-0.3,0c0.1,0.1,0,0.1,0,0.1c0,0.1,0.7,0.8,1,1.8c0,0.1,0,0.4,0.1,0.4c0.2,0,0-0.4,0.2-0.4
						c0.1,0.5,0,1.1-0.3,1.5c-0.7,0.9-2.3,0.3-1.6-0.7c0.2,0.2,0.4,0.3,0.7,0.2c0.7-0.3,0.1-1.8-0.4-2.4c-2-2.5-6.4-1.7-8.1,0.7
						c-0.7,1-0.9,2.5-0.4,2.8C5.2,11.1,5,10,5.3,9c0.4-1.2,1.2-2,2.3-2.6c-0.3,0.3-0.7,0.5-1,0.8c-0.7,0.8-1,2.4-0.3,2.3
						c0.4,0,0.4-1,0.7-1.3c0.4-0.4,0.3,0.2,0.5,0.3C7.9,8.7,8,7.3,9.2,6.8c1.2-0.4,1.5,0.5,1.6,0.6c0.5,0.4,1.3-0.1,1.8,0.7
						c0.2,0.3,0.3,0.7,0.1,1c-0.9-1.2-2.6-1.9-4-1c-1.2,0.8-2.1,2.3-2.7,3c-1,1.1-2.1,0.7-2-0.8c0-0.3,0.3-1.1,0-1
						c-0.3,0.1-0.3,0.8-0.4,1c0-0.1-0.1-0.2-0.2-0.2c0.2-0.7,0.5-1.4,1-1.9c0.3-0.4,0.7-0.7,1-1c0,0,0-0.1,0-0.1
						c0.1-0.1,0.5-0.2-0.2-0.2C6.9,5.5,9,4.9,11.1,5.3C12,5.5,13,6,13.6,6.7z"/>
					<path d="M5.6,9.7c0.3,0,0.1,0.3,0.1,0.5C5.2,11,5.3,9.7,5.6,9.7z"/>
				</g>
				<path d="M3,13.9c0.1,0.4,1.1,2.4,1.2,2.5c0.1,0.1,0.1-0.1,0.2-0.2C5,17.2,5.9,18,6.8,18.6c0.4,0.2,1,0.6,1.4,0.7
					c-0.3,0-0.6,0-0.9,0C7,19.3,6.7,19.1,6.4,19c-0.6-0.3-1.4-0.9-1.9-1.4C4,17,3.5,16.1,3.1,15.4C3,15.1,3,14.8,2.9,14.6
					c0-0.1,0-0.1,0-0.1c0-0.2-0.1-0.4-0.1-0.6C2.8,13.9,2.9,14,3,13.9z"/>
				<path d="M9.8,19.4c-0.3,0-0.8,0-1.1,0c-0.2,0-0.7-0.3-0.9-0.4c0.1-0.1,0-0.4,0.1-0.5C8.3,18.8,9.3,19.3,9.8,19.4z"/>
				<path d="M7.8,19c0.2,0.1,0.8,0.3,0.9,0.4c-0.1,0.1-0.3,0-0.4,0c-0.4-0.1-1.1-0.5-1.4-0.7c0.1,0,0.1,0,0.1-0.1
					C7.2,18.7,7.5,18.9,7.8,19z"/>
				<path d="M6.4,19c0.3,0.1,0.6,0.3,0.9,0.4c-0.1,0-0.3,0-0.5,0c-0.1,0-0.2-0.1-0.3-0.1c-0.5-0.2-0.9-0.5-1.3-0.8
					C5.6,18.5,6.1,19,6.4,19z"/>
				<g>
					<path d="M12.6,9.3c-0.1,0-1.1-0.3-2.2,0.3c-1.2,0.7-1.7,2.4-1.2,3.7c0,0.1,0,0.1,0.1,0.2c0.1,0.2,0.1,0.2,0.1,0.4
						c-1.1-0.4-1.6-1.8-2.2-2.2C7.4,9.9,8.7,8,10.7,8.2C11.3,8.3,12.3,8.7,12.6,9.3z"/>
					<path d="M8.9,9.4C8.4,10,8.1,10.8,8,11.6C8.1,10.7,8.3,10.1,8.9,9.4C8.9,9.4,8.9,9.4,8.9,9.4z"/>
					<path d="M9.4,9.7C9.4,9.7,9.4,9.7,9.4,9.7C9,10.3,8.7,11,8.6,11.7C8.6,11,8.9,10.2,9.4,9.7z"/>
					<path d="M8.9,9.4C8.9,9.4,8.9,9.4,8.9,9.4c0-0.1,0.1-0.2,0.2-0.2C8.5,9.5,9.2,8.9,9.7,8.8C9.4,8.9,9.1,9.2,8.9,9.4z"/>
				</g>
				<path d="M4.6,17.6c0.5,0.5,1.2,1.1,1.9,1.4c-0.4,0-0.8-0.5-1.2-0.6c-0.3-0.3-0.6-0.6-0.9-0.9C4.4,17.5,4.5,17.6,4.6,17.6z"/>
				<g>
					<path d="M2.7,13.9c0.1,0.2,0.1,0.4,0.1,0.6c0,0.1,0,0.1,0,0.1c0.2,0.8,0.9,2.4,1.5,2.9c0.3,0.3,0.6,0.6,0.9,0.9
						c0.4,0.3,0.8,0.6,1.3,0.8c-1.2,0.2-2.3-0.7-3-1.6c-0.8-1-1.3-2.4-1.4-3.6C2.3,13.9,2.5,13.9,2.7,13.9z"/>
					<path d="M4.6,17.6c-0.1,0-0.2-0.1-0.2-0.1c-0.6-0.5-1.3-2.1-1.5-2.9C3,14.8,3,15.1,3.1,15.4C3.5,16.1,4,17,4.6,17.6z"/>
					<path d="M2.9,14.6C2.9,14.6,2.8,14.6,2.9,14.6C2.8,14.5,2.8,14.5,2.9,14.6z"/>
				</g>
				<g>
					<path d="M20.6,14.7c0,0.1-0.3,0-0.3,0.1c-0.2,0-0.2,0-0.1,0.2c-0.2-0.1-0.3-0.1-0.4,0c-0.1-0.1-0.4-0.3-0.4-0.3
						c0,0,0,0.2-0.2,0c0,0-0.3-0.4-0.4-0.5c-0.2,0.8-1.7,0.8-2.4,0.5c-1.4-0.2-1.8,0.4-2.9,0.6c-0.3,0-0.9,0-1.2,0
						c-0.5-0.1-1-0.3-1.5-0.4c-0.1-0.1-0.2-0.2-0.3-0.4c1.4,0.1,2.5,0.5,3.9,0.1c0.3-0.1,0.7-0.3,1-0.4c0.4-0.1,1,0,1.5,0
						c0.6,0,1.3-0.2,1.9-0.2C19.3,14.5,20.1,14.7,20.6,14.7z"/>
					<path d="M22.4,13.5c-1,0-2.1,0-3.1,0c-0.4,0-0.5-0.1-1.2,0.1c-0.7-0.1-1.5,0-2.3,0c0,0,0,0,0,0.1c-0.4-0.1-0.6-0.1-0.9-0.1
						c-0.2,0-0.5,0-0.7,0c-0.3,0-2,0-2.1,0c0,0-0.1,0.1-0.1,0.1c-0.6-0.1-0.6,0-1,0c-0.5,0-1.1,0-1.6,0c0,0,0,0,0,0
						c0,0-0.1-0.1-0.1-0.1c-0.1-0.1,0-0.1-0.1-0.2c4.5,0,9-0.1,13.5,0C22.6,13.4,22.5,13.5,22.4,13.5z"/>
					<path d="M19.2,14.7c-0.8,0.5-1.8,0.8-2.7,0.4c-0.1-0.1-0.2-0.3-0.2-0.3C15,15.6,12,16,10.9,14.9c0.5,0.1,1,0.3,1.5,0.4
						c0.3,0,0.9,0,1.2,0c1.2-0.1,1.6-0.7,2.9-0.6c0.7,0.3,2.1,0.3,2.4-0.5C18.9,14.3,19.2,14.7,19.2,14.7z"/>
					<path d="M19.4,14.8c-0.3,0.7-1.7,1-2.4,0.8c-0.2-0.1-0.4-0.3-0.5-0.4c0.9,0.4,1.9,0.1,2.7-0.4C19.4,14.8,19.4,14.7,19.4,14.8
						C19.5,14.7,19.4,14.7,19.4,14.8z"/>
					<path d="M19.9,15.1c0.2,0.1,0.4,0.2,0.5,0.2c0.7,0.2,1.4,0.3,2.2,0.4c0,0,0.1,0,0,0c-0.9,0.3-2.5,0.1-3.1-0.7
						C19.7,15,19.8,15.1,19.9,15.1z"/>
					<path d="M22.1,15.2c-0.1,0-0.5,0-0.5,0c0.1,0.1,0.1,0.1,0.2,0.3c-0.2,0-0.3-0.3-0.3-0.3c0,0-0.5,0-0.9-0.1
						c-0.1,0-0.2-0.1-0.3-0.1c-0.2-0.2-0.1-0.2,0.1-0.2c0.6-0.1,1.7,0.2,2.4,0.1c0,0,0,0,0,0C22.5,15.1,22.3,15.1,22.1,15.2z"/>
					<path d="M22.4,13.5c-0.3,0.2-0.6,0.2-1,0.3c-0.8,0.1-1.3,0-2.1-0.2c0,0-0.1,0-0.1-0.1C20.3,13.5,21.4,13.6,22.4,13.5z"/>
					<path d="M22.1,15.2c0.1,0.2,0.4,0.4,0.5,0.5c-0.7-0.1-1.5-0.1-2.2-0.4c0-0.1,0-0.1,0.1-0.2c0.4,0.1,0.9,0.1,0.9,0.1
						c0,0,0.1,0.3,0.3,0.3c-0.1-0.1-0.1-0.1-0.2-0.3C21.6,15.2,22,15.2,22.1,15.2z"/>
					<path d="M19.9,15C19.9,15.1,20,15,19.9,15c-0.1,0.1-0.2,0-0.3,0c-0.1-0.1-0.1-0.2-0.1-0.2c0,0,0-0.1,0-0.1
						C19.5,14.7,19.8,14.9,19.9,15z"/>
					<g>
						<path d="M11,13.6c-0.3,0.1-0.6,0-0.9,0.1c0.5,0.1,1.4,0,1.8,0c0.3,0,0.8,0.3,1,0.3c0.4,0-0.1,0-0.1,0c0,0-0.4-0.2-0.4-0.2
							c0.2,0-0.2-0.1-0.3-0.1c0,0,0.1-0.1,0.1-0.1c0.1,0,1.8,0,2.1,0c0.2,0,0.5,0,0.7,0c0.5,0,1,0.2,1.4,0.4c0.2,0.2,0,0.2-0.3,0.1
							c-0.3,0-0.6-0.1-0.9-0.1c-0.7,0-0.9,0.2-1.5,0.4c-0.4,0-0.9-0.1-1.3-0.2c0.5-0.1-0.6,0-1,0c0.9-0.1,1.8,0.3,2.3,0.2
							c0.5-0.1,0.9-0.6,2.3-0.3c0.5,0,1,0,1.5,0c0.5,0,1.1-0.1,1.6-0.1c0.8,0.2,1.7,0.4,2.6,0.3c-0.5,0-0.9,0-1.4-0.1
							c-0.4-0.1-0.8-0.3-1.2-0.4c-0.2,0-1.1,0.2-1.6,0.2c-0.2,0-0.6,0-0.7,0c-0.2,0-0.4-0.3-0.7-0.4c0,0,0,0,0-0.1
							c0.8,0.1,1.5-0.1,2.3,0c-0.8,0.3,0.1,0,0.4,0c1.1-0.1,1.5,0.6,3,0.3c0.2,0,0.2,0,0.3,0c0.5,0.1,0.5,0.1,1,0.3
							c-0.4,0.4-1.6,0.6-2.2,0.6c-0.6,0-1.4-0.2-1.8-0.7c-0.6,0-1.3,0.2-1.9,0.2c-0.4,0-1.1,0-1.5,0c-0.3,0-0.7,0.3-1,0.4
							c-1.4,0.4-2.5,0-3.9-0.1c-0.3-0.3-0.7-0.5-1.1-0.6c-0.1-0.2-0.1-0.2-0.1-0.4c0,0,0.1,0.1,0.1,0.1c0,0,0,0,0,0
							C9.9,13.6,10.5,13.6,11,13.6z"/>
						<g>
							<path d="M19.3,13.5C19.3,13.6,19.3,13.6,19.3,13.5c0.8,0.3,1.4,0.3,2.1,0.3c0,0,0,0,0,0.1c-1.5,0.3-1.9-0.4-3-0.3
								c-0.3,0-1.2,0.3-0.4,0C18.8,13.4,18.9,13.5,19.3,13.5z"/>
							<path d="M15.8,13.6c0.3,0.1,0.6,0.3,0.7,0.4c0.2,0,0.5,0.1,0.7,0c0,0,0,0,0,0c-0.5,0-1,0-1.5,0c-1.3-0.3-1.7,0.3-2.3,0.3
								c-0.5,0.1-1.4-0.3-2.3-0.2c0.4-0.1,1.5-0.1,1,0c0.4,0.1,0.9,0.2,1.3,0.2c0.6-0.2,0.9-0.4,1.5-0.4c0.3,0,0.6,0.1,0.9,0.1
								c0.3,0,0.6,0,0.3-0.1c-0.4-0.3-0.9-0.4-1.4-0.4C15.3,13.5,15.5,13.5,15.8,13.6z"/>
							<path d="M17.3,14.1C17.3,14.1,17.3,14.1,17.3,14.1c0.5-0.1,1.3-0.2,1.6-0.2c0.4,0.1,0.8,0.3,1.2,0.4c0.4,0.1,0.9,0,1.4,0.1
								c-0.9,0.1-1.7,0-2.6-0.3C18.3,14,17.8,14.1,17.3,14.1z"/>
							<path d="M12,13.6c0.1,0,0.5,0.1,0.3,0.1c0,0,0.4,0.2,0.4,0.2c0,0,0.5,0,0.1,0c-0.2,0-0.6-0.2-1-0.3c-0.3,0-1.2,0.1-1.8,0
								c0.3-0.1,0.6,0,0.9-0.1C11.5,13.6,11.4,13.5,12,13.6z"/>
							<path d="M12.7,14.5c0.5,0,0.5,0,0.9,0C13.3,14.6,13,14.6,12.7,14.5z"/>
							<path d="M21.8,14.2c0.3,0,0,0.1-0.3,0C21.6,14.3,21.7,14.3,21.8,14.2z"/>
						</g>
					</g>
					<path d="M20.2,15c0.1,0,0.2,0.1,0.3,0.1c0,0.1,0,0.1-0.1,0.2c-0.2-0.1-0.4-0.1-0.5-0.2c0,0,0,0,0-0.1
						C19.9,14.9,20.1,15,20.2,15z"/>
				</g>
				<path d="M15.2,18.8c-0.9-0.2-1.8-0.5-2.5-1c-0.1-0.1-0.6-0.4-0.7-0.6c0.3,0.1,0.4,0.3,0.7,0.4c0.5,0.3,1.3,0.7,1.8,0.9
					C14.8,18.7,15.2,18.8,15.2,18.8C15.2,18.8,15.2,18.8,15.2,18.8z"/>
				<path d="M3.8,14.6c0.2,0.6,0.4,1.1,0.7,1.6c-0.1,0.2-0.1,0.4-0.2,0.2c-0.2-0.2-1.1-2.1-1.2-2.5c0.2,0,0.4,0,0.5-0.1
					C3.6,14.1,3.7,14.3,3.8,14.6z"/>
				<path d="M19.5,15.6c0,0.1-0.1,0.1-0.1,0.2c-0.1,0.1-0.4,0.3-0.5,0.3c-0.1,0.1-0.4,0.1-0.5,0.2c-0.1,0-0.1,0-0.2,0
					c0-0.1-0.7,0-0.5-0.2c0,0,0.4,0,0.5-0.1C18.6,16,19.1,15.8,19.5,15.6z"/>
				<g>
					<path d="M15.6,16.2C15.6,16.3,15.6,16.3,15.6,16.2c0,0.2,0.1,0.4,0.2,0.5c0.2-0.1,0.2-0.1,0.3-0.1c0.4,0.4,1.1,0.7,1.7,0.8
						c-1,0.2-2-0.2-2.7-0.9c0.2,0.2,0.4,0.4,0.7,0.6c0.6,0.3,1.4,0.4,0.7,0.4c-1.1-0.1-2.2-0.3-3.2-0.9C14,16.6,14.8,16.5,15.6,16.2
						z"/>
					<path d="M15.1,17.1c0.1,0,0.1,0,0.2,0.1C15.2,17.2,15.1,17.1,15.1,17.1z"/>
					<path d="M15.1,17.1c0,0-0.1,0-0.1-0.1C15,17,15.1,17.1,15.1,17.1z"/>
				</g>
				<path d="M19.7,16.2c-0.1,0,0.1,0.2-0.2,0.1c-0.1,0.1,0.1,0-0.1,0.2c-0.1-0.1-0.3-0.1-0.4-0.4c0,0,0,0,0-0.1
					c0.1-0.1,0.4-0.2,0.5-0.3C19.5,16,19.5,16.1,19.7,16.2z"/>
				<path d="M19.3,16.5c0,0,0.1,0.1,0.2,0.2c0.2,0.1,0.5,0.3,0.3,0.2c-0.3-0.1-0.8-0.5-0.9-0.8C19.1,16.4,19.2,16.4,19.3,16.5z"/>
			</g>
			<circle class="st6" cx="12" cy="12" r="12"/>
		</g>
	</g>
</g>
</svg>
