<?xml version="1.0" encoding="utf-8"?>
<svg viewBox="0 0 24 24" fill="none" xmlns="http://www.w3.org/2000/svg">
  <circle cx="12" cy="12" fill="#fff" fill-opacity="0.20" r="12" transform="matrix(1, 0, 0, 1, 0, 2.220446049250313e-16)"/>
  <path style="stroke: rgb(0, 0, 0); fill: rgb(216, 216, 216); fill-opacity: 0;" d="M 4.623 9.174 C 4.761 8.76 5.199 8.303 5.485 7.976 C 5.767 7.653 6.106 7.4 6.443 7.138 C 7.674 6.18 9.252 6.844 10.299 7.76 C 11.15 8.505 11.622 9.274 12.862 9.15 C 14.404 8.996 15.574 8.003 16.695 7.042 C 17.095 6.698 17.265 6.563 17.82 6.563 C 17.902 6.563 18.121 6.528 18.18 6.587" transform="matrix(1, 0, 0, 1, 0, 2.220446049250313e-16)"/>
  <path style="fill: rgb(216, 216, 216); stroke: rgb(0, 0, 0); fill-opacity: 0;" d="M 4.742 12.233 C 4.88 11.819 5.318 11.362 5.604 11.035 C 5.886 10.712 6.225 10.459 6.562 10.197 C 7.793 9.239 9.371 9.903 10.418 10.819 C 11.269 11.564 11.741 12.333 12.981 12.209 C 14.523 12.055 15.693 11.062 16.814 10.101 C 17.214 9.757 17.384 9.622 17.939 9.622 C 18.021 9.622 18.24 9.587 18.299 9.646" transform="matrix(1, 0, 0, 1, 0, 2.220446049250313e-16)"/>
  <path style="fill: rgb(216, 216, 216); stroke: rgb(0, 0, 0); fill-opacity: 0;" d="M 4.791 15.754 C 4.929 15.34 5.367 14.883 5.653 14.556 C 5.935 14.233 6.274 13.98 6.611 13.718 C 7.842 12.76 9.42 13.424 10.467 14.34 C 11.318 15.085 11.79 15.854 13.03 15.73 C 14.572 15.576 15.742 14.583 16.863 13.622 C 17.263 13.278 17.433 13.143 17.988 13.143 C 18.07 13.143 18.289 13.108 18.348 13.167" transform="matrix(1, 0, 0, 1, 0, 2.220446049250313e-16)"/>
</svg>