<?xml version="1.0" encoding="utf-8"?>
<!-- Generator: Adobe Illustrator 28.2.0, SVG Export Plug-In . SVG Version: 6.00 Build 0)  -->
<svg version="1.1" id="Ebene_1" xmlns="http://www.w3.org/2000/svg" xmlns:xlink="http://www.w3.org/1999/xlink" x="0px" y="0px"
	 viewBox="0 0 24 24" style="enable-background:new 0 0 24 24;" xml:space="preserve">
<style type="text/css">
	.st0{fill:#FFFFFF;fill-opacity:0.2;}
	.st1{display:none;}
	.st2{display:inline;fill:#1D1D1B;}
	.st3{fill:#232323;}
</style>
<circle class="st0" cx="12" cy="12" r="12"/>
<g>
	<g id="Background_00000106121213151992462760000013117746676614089130_" class="st1">
		<path class="st2" d="M29.3,1c0,8.7,0,8.7,0,17.4c-9.2,0-9.2,0-18.3,0c0-8.7,0-8.7,0-17.4C20.2,1,20.2,1,29.3,1z"/>
	</g>
	<g>
		<g>
			<path class="st3" d="M12.4,8.2c0.4,0.6,0.4,1,0.4,1.6c0,0.2,0,1.2,0.2,1.2c0.9-1.7,0.7-3.3-0.2-5l0,0c1.1,1,1.8,2.5,1.8,4.1
				s-0.5,2.3-0.5,3.9c0.7-0.8,1.1-1.9,1.1-2.9c0-0.6,0-1,0-1.6c1.3,1.9,1.6,5.6,0.5,7.8c-2,3.5-8.2,2.7-9-1.4
				c-0.2-1.9,0.4-3.7,1.1-5c0.4-0.6,0.7-1,1.1-1.4s0.2-0.2,0.2,0.2C8.8,11,8.6,11.9,9,13.5c0,0.2,0.2,0.4,0.2,0.4
				c0.5-1.2,1.1-3.1,1.1-4.5c0-1.4-0.9-2.5-0.5-3.9c0.2-0.4,0.7-1.4,0.9-1.2C10.3,6.9,11.9,6.7,12.4,8.2z"/>
			<path class="st3" d="M7.7,10.6C7.9,10.8,7.9,10.8,7.7,10.6c-0.7,1.6-1.1,3.3-0.9,4.8c0.7,4.1,6.9,4.8,9,1.4
				c1.3-2.1,0.7-5.6-0.5-7.8c0,0.6,0,1,0,1.6c-0.2,1-0.4,2.1-1.1,2.9c0-1.4,0.5-2.3,0.5-3.9c0-0.4,0-0.4,0-0.6c0.2,0,0,0,0.2-0.2
				l0.4-0.2c0.4,0,1.1,1.9,1.3,2.3c0.7,2.3,0.7,5.2-1.3,7c-2.9,2.5-7.1,1.2-8.2-1.6C6.2,14.5,6.8,12.3,7.7,10.6z"/>
			<path class="st3" d="M12.4,8.2c-0.5-1.6-2.2-1.4-1.8-4.1c0-0.2-0.7,0.6-0.9,1.2c-0.4,1.4,0.4,2.5,0.5,3.9c0,1.4-0.5,3.3-1.1,4.5
				c0,0-0.2-0.2-0.2-0.4c0,0,0,0,0.2,0c0.2-0.6,0.7-2.7,0.7-3.3c0.2-1.9-0.7-3.1-0.4-4.5c0-0.6,0.7-1.7,1.3-1.6c0.2,0,0,1.2,0.4,1.9
				C11.4,6.7,12.6,7.3,12.4,8.2z"/>
			<path class="st3" d="M14.8,9L14.8,9c-0.2,0.4-0.2,0.4-0.2,0.8c0-1.6-0.7-2.9-1.8-4.1l0,0c0.7,1.7,0.9,3.3,0.2,5
				c-0.2,0.2-0.2-0.8-0.2-1c0.2,0,0,0.8,0.2,0.8c1.1-2.9-0.4-4.5-0.4-4.8c0-0.8,1.1,0.6,1.1,0.6C14.5,7.1,14.6,7.9,14.8,9z"/>
			<path class="st3" d="M9.2,9.6C9.3,9.2,9.3,9,9,9.4c-0.4,0.4-0.7,0.8-1.1,1.4c0,0,0,0-0.2-0.2c0.4-0.8,1.1-1.4,1.6-1.9
				C9.3,9,9.2,9.4,9.2,9.6z"/>
		</g>
	</g>
</g>
</svg>
